<svg xmlns="http://www.w3.org/2000/svg" viewBox="0 0 64 64" role="img" aria-label="Smart Construction and BIM Lab favicon">
  <defs>
    <linearGradient id="g" x1="0%" x2="100%" y1="0%" y2="100%">
      <stop offset="0%" stop-color="#0d2038"/>
      <stop offset="100%" stop-color="#2a6d8f"/>
    </linearGradient>
  </defs>
  <rect width="64" height="64" rx="18" fill="url(#g)"/>
  <path d="M16 20h32M16 32h32M16 44h32" stroke="rgba(255,255,255,0.14)" stroke-width="1.5"/>
  <path d="M22 16v32M32 16v32M42 16v32" stroke="rgba(255,255,255,0.14)" stroke-width="1.5"/>
  <path d="M18 41c0-8 5-14 13-14 4 0 8 2 10 4l-3 4c-2-2-4-3-7-3-4 0-8 3-8 9 0 6 4 9 8 9 3 0 5-1 7-3l3 3c-3 4-7 5-11 5-8 0-12-6-12-14Z" fill="#ffffff"/>
  <path d="M36 20h6c5 0 9 2 9 8 0 3-2 6-5 8l6 10h-6l-5-9h-4v9h-5V20Zm6 12c3 0 5-1 5-4 0-2-2-3-5-3h-5v7Z" fill="#ffffff"/>
</svg>
