<svg xmlns="http://www.w3.org/2000/svg" viewBox="0 0 64 64" role="img" aria-label="Smart Construction and BIM Lab favicon">
  <defs>
    <linearGradient id="g" x1="0%" x2="100%" y1="0%" y2="100%">
      <stop offset="0%" stop-color="#0e2340"/>
      <stop offset="100%" stop-color="#1f6b89"/>
    </linearGradient>
  </defs>
  <rect width="64" height="64" rx="16" fill="url(#g)"/>
  <path d="M17 21h30M17 32h30M17 43h30" stroke="rgba(255,255,255,0.18)" stroke-width="1.5"/>
  <path d="M22 18v28M32 18v28M42 18v28" stroke="rgba(255,255,255,0.18)" stroke-width="1.5"/>
  <path d="M21 42c0-8 5-13 12-13 4 0 7 1 9 4l-3 3c-1-2-4-3-6-3-4 0-7 3-7 9 0 6 3 9 7 9 3 0 5-1 7-3l3 3c-3 3-6 4-10 4-7 0-12-5-12-13Z" fill="#fff"/>
  <path d="M35 22h6c5 0 8 2 8 7 0 3-2 6-5 7l6 10h-6l-5-9h-4v9h-5V22Zm5 11c3 0 5-1 5-4 0-2-2-3-5-3h-5v7Z" fill="#fff"/>
</svg>
